<svg
    width="25"
    height="24"
    viewBox="0 0 25 24"
    fill="none"
    xmlns="http://www.w3.org/2000/svg"
  >
    <path
      d="M10.0595 11.62C10.0295 11.62 10.0095 11.62 9.97947 11.62C9.92947 11.61 9.85947 11.61 9.79947 11.62C6.89947 11.53 4.70947 9.25 4.70947 6.44C4.70947 3.58 7.03947 1.25 9.89947 1.25C12.7595 1.25 15.0895 3.58 15.0895 6.44C15.0795 9.25 12.8795 11.53 10.0895 11.62C10.0795 11.62 10.0695 11.62 10.0595 11.62ZM9.89947 2.75C7.86947 2.75 6.20947 4.41 6.20947 6.44C6.20947 8.44 7.76947 10.05 9.75947 10.12C9.81947 10.11 9.94947 10.11 10.0795 10.12C12.0395 10.03 13.5795 8.42 13.5895 6.44C13.5895 4.41 11.9295 2.75 9.89947 2.75Z"
    />
    <path
      d="M21.0593 7.5C21.0593 9.52673 19.4781 11.1651 17.4603 11.25L17.4065 11.232L17.3007 11.2424C17.2257 11.2497 17.1399 11.2261 17.072 11.1761C17.0059 11.1275 16.981 11.0732 16.9769 11.0314C16.968 10.9403 16.9926 10.8686 17.0253 10.8235C17.0541 10.7838 17.094 10.7563 17.1523 10.7474C17.2451 10.7403 17.3499 10.74 17.4593 10.74H17.473L17.4866 10.7393C19.2117 10.6447 20.5593 9.22558 20.5593 7.49C20.5593 5.69386 19.1054 4.24 17.3093 4.24V4.23985L17.2971 4.24015C17.1751 4.24312 17.0593 4.13635 17.0593 4C17.0593 3.86614 17.1754 3.75 17.3093 3.75C19.3731 3.75 21.0593 5.43614 21.0593 7.5Z"
    />
    <path
      d="M10.0695 22.55C8.10951 22.55 6.13951 22.05 4.64951 21.05C3.25951 20.13 2.49951 18.87 2.49951 17.5C2.49951 16.13 3.25951 14.86 4.64951 13.93C7.64951 11.94 12.5095 11.94 15.4895 13.93C16.8695 14.85 17.6395 16.11 17.6395 17.48C17.6395 18.85 16.8795 20.12 15.4895 21.05C13.9895 22.05 12.0295 22.55 10.0695 22.55ZM5.47951 15.19C4.51951 15.83 3.99951 16.65 3.99951 17.51C3.99951 18.36 4.52951 19.18 5.47951 19.81C7.96951 21.48 12.1695 21.48 14.6595 19.81C15.6195 19.17 16.1395 18.35 16.1395 17.49C16.1395 16.64 15.6095 15.82 14.6595 15.19C12.1695 13.53 7.96951 13.53 5.47951 15.19Z"
    />
    <path
      d="M19.2396 20.75C18.8896 20.75 18.5796 20.51 18.5096 20.15C18.4296 19.74 18.6896 19.35 19.0896 19.26C19.7196 19.13 20.2996 18.88 20.7496 18.53C21.3196 18.1 21.6296 17.56 21.6296 16.99C21.6296 16.42 21.3196 15.88 20.7596 15.46C20.3196 15.12 19.7696 14.88 19.1196 14.73C18.7196 14.64 18.4596 14.24 18.5496 13.83C18.6396 13.43 19.0396 13.17 19.4496 13.26C20.3096 13.45 21.0596 13.79 21.6696 14.26C22.5996 14.96 23.1296 15.95 23.1296 16.99C23.1296 18.03 22.5896 19.02 21.6596 19.73C21.0396 20.21 20.2596 20.56 19.3996 20.73C19.3396 20.75 19.2896 20.75 19.2396 20.75Z"
    />
    </svg>