<svg width="41" height="40" viewBox="0 0 41 40" fill="none" xmlns="http://www.w3.org/2000/svg">
        <rect x="0.499996" width="40" height="40" rx="20" fill="#F9FAFB" />
        <path d="M26.9 18.4H22.1V13.6C22.1 12.7253 21.3747 12 20.5 12C19.6253 12 18.9 12.7253 18.9 13.6V18.4H14.1C13.2253 18.4 12.5 19.1253 12.5 20C12.5 20.8747 13.2253 21.6 14.1 21.6H18.9V26.4C18.9 27.2747 19.6253 28 20.5 28C21.3747 28 22.1 27.2747 22.1 26.4V21.6H26.9C27.7747 21.6 28.5 20.8747 28.5 20C28.5 19.1253 27.7747 18.4 26.9 18.4Z" />
    </svg>