<svg
    width="24"
    height="24"
    viewBox="0 0 24 24"
    fill="none"
    xmlns="http://www.w3.org/2000/svg"
  >
    <path
      d="M21.49 7.80863V7.81V16.19C21.49 17.9106 20.9791 19.2238 20.0964 20.1064C19.2138 20.9891 17.9006 21.5 16.18 21.5H7.81C6.08945 21.5 4.77634 20.9891 3.89377 20.1054C3.01114 19.2217 2.5 17.9059 2.5 16.18V7.81C2.5 6.08944 3.01093 4.77618 3.89355 3.89355C4.77618 3.01093 6.08944 2.5 7.81 2.5H16.19C17.9107 2.5 19.2237 3.01097 20.105 3.89333C20.9861 4.77559 21.4947 6.08838 21.49 7.80863ZM18.3069 14.3031L18.3117 14.2923L18.316 14.2812C18.4312 13.9849 18.4285 13.6545 18.3343 13.3719L18.3283 13.3537L18.3208 13.336C18.1863 13.0166 17.9366 12.7891 17.6531 12.6631L17.6445 12.6593L17.6357 12.6558C17.488 12.5967 17.3348 12.56 17.16 12.56H6.85C6.16386 12.56 5.6 13.1239 5.6 13.81C5.6 14.4961 6.16386 15.06 6.85 15.06H14.1429L13.2364 15.9664C12.7512 16.4517 12.7512 17.2483 13.2364 17.7336C13.4852 17.9823 13.8045 18.1 14.12 18.1C14.4355 18.1 14.7548 17.9823 15.0036 17.7336L18.0436 14.6936C18.1665 14.5706 18.2481 14.4354 18.3069 14.3031ZM6.35693 11.3269L6.36555 11.3307L6.3743 11.3342C6.52201 11.3933 6.67521 11.43 6.85 11.43H17.15C17.8418 11.43 18.41 10.8704 18.41 10.18C18.41 9.49386 17.8461 8.93 17.16 8.93H9.86226L10.7636 8.02355C10.7637 8.0234 10.7639 8.02324 10.764 8.02309C11.2488 7.53778 11.2487 6.74155 10.7636 6.25645C10.2783 5.77118 9.48171 5.77118 8.99645 6.25645L5.95645 9.29645C5.83353 9.41936 5.75189 9.55464 5.69309 9.68693C5.55631 9.9947 5.55564 10.3503 5.69108 10.6585C5.826 10.9755 6.07469 11.2015 6.35693 11.3269Z"
      stroke="white"
    />
  </svg>