<svg
    width="25"
    height="24"
    viewBox="0 0 25 24"
    fill="none"
    xmlns="http://www.w3.org/2000/svg"
  >
    <path
      d="M15.0996 22.75H9.09961C3.66961 22.75 1.34961 20.43 1.34961 15V9C1.34961 3.57 3.66961 1.25 9.09961 1.25H15.0996C20.5296 1.25 22.8496 3.57 22.8496 9V15C22.8496 20.43 20.5296 22.75 15.0996 22.75ZM9.09961 2.75C4.48961 2.75 2.84961 4.39 2.84961 9V15C2.84961 19.61 4.48961 21.25 9.09961 21.25H15.0996C19.7096 21.25 21.3496 19.61 21.3496 15V9C21.3496 4.39 19.7096 2.75 15.0996 2.75H9.09961Z"
    />
    <path
      d="M14.2094 17.1098C14.1449 17.1098 14.0843 17.0875 14.033 17.0362C13.9382 16.9415 13.9382 16.7781 14.033 16.6833L17.073 13.6433C17.1677 13.5486 17.3311 13.5486 17.4259 13.6433C17.5206 13.7381 17.5206 13.9015 17.4259 13.9962L14.3859 17.0362C14.3386 17.0835 14.2753 17.1098 14.2094 17.1098Z"
      stroke="#7B7B7B"
    />
    <path
      d="M17.2497 14.5703H6.94971C6.53971 14.5703 6.19971 14.2303 6.19971 13.8203C6.19971 13.4103 6.53971 13.0703 6.94971 13.0703H17.2597C17.6697 13.0703 18.0097 13.4103 18.0097 13.8203C18.0097 14.2303 17.6697 14.5703 17.2497 14.5703Z"
    />
    <path
      d="M6.94965 10.9301C6.75965 10.9301 6.56965 10.8601 6.41965 10.7101C6.12965 10.4201 6.12965 9.94008 6.41965 9.65008L9.45965 6.61008C9.74965 6.32008 10.2296 6.32008 10.5196 6.61008C10.8096 6.90008 10.8096 7.38008 10.5196 7.67008L7.47965 10.7101C7.32965 10.8601 7.13965 10.9301 6.94965 10.9301Z"
    />
    <path
      d="M17.2497 10.9297H6.94971C6.53971 10.9297 6.19971 10.5897 6.19971 10.1797C6.19971 9.76969 6.53971 9.42969 6.94971 9.42969H17.2597C17.6697 9.42969 18.0097 9.76969 18.0097 10.1797C18.0097 10.5897 17.6697 10.9297 17.2497 10.9297Z"
    />
  </svg>