<svg
    width="24"
    height="24"
    viewBox="0 0 24 24"
    fill="none"
    xmlns="http://www.w3.org/2000/svg"
  >
    <path
      d="M3.5 8.26995C3.31982 8.42248 3.15252 8.58998 3 8.77056V7.84078C3 6.85775 3.6022 5.98465 4.51672 5.63851C4.5168 5.63848 4.51687 5.63845 4.51695 5.63842L12.4536 2.63969C12.619 2.57991 12.7902 2.55078 12.95 2.55078C13.6894 2.55078 14.35 3.1522 14.35 3.95078V7.25078H13.85V3.95078C13.85 3.65044 13.7103 3.41469 13.5289 3.26444C13.3613 3.12564 13.1491 3.05078 12.95 3.05078C12.8337 3.05078 12.7227 3.07392 12.6198 3.11437L4.6936 6.10293L4.69347 6.10298C3.96479 6.37795 3.5 7.06708 3.5 7.84078V8.26995Z"
      stroke="white"
    />
    <path
      d="M21.4999 14.5V15.5C21.4999 15.77 21.2899 15.99 21.0099 16H19.5499C19.0199 16 18.5399 15.61 18.4999 15.09C18.4699 14.78 18.5899 14.49 18.7899 14.29C18.9699 14.1 19.2199 14 19.4899 14H20.9999C21.2899 14.01 21.4999 14.23 21.4999 14.5Z"
    />
    <path
      d="M19.48 12.95H20.5C21.05 12.95 21.5 12.5 21.5 11.95V11.51C21.5 9.44 19.81 7.75 17.74 7.75H6.26C5.41 7.75 4.63 8.03 4 8.51C3.09 9.19 2.5 10.28 2.5 11.51V18.24C2.5 20.31 4.19 22 6.26 22H17.74C19.81 22 21.5 20.31 21.5 18.24V18.05C21.5 17.5 21.05 17.05 20.5 17.05H19.63C18.67 17.05 17.75 16.46 17.5 15.53C17.29 14.77 17.54 14.04 18.04 13.55C18.41 13.17 18.92 12.95 19.48 12.95ZM14 12.75H7C6.59 12.75 6.25 12.41 6.25 12C6.25 11.59 6.59 11.25 7 11.25H14C14.41 11.25 14.75 11.59 14.75 12C14.75 12.41 14.41 12.75 14 12.75Z"
    />
  </svg>