<svg
    width="24"
    height="24"
    viewBox="0 0 25 24"
    fill="none"
    xmlns="http://www.w3.org/2000/svg"
  >
    <path
      d="M18.4397 22.75H6.95971C4.46971 22.75 2.44971 20.73 2.44971 18.24V11.51C2.44971 9.02001 4.46971 7 6.95971 7H18.4397C20.9297 7 22.9497 9.02001 22.9497 11.51V12.95C22.9497 13.36 22.6097 13.7 22.1997 13.7H20.1797C19.8297 13.7 19.5097 13.83 19.2797 14.07L19.2697 14.08C18.9897 14.35 18.8597 14.72 18.8897 15.1C18.9497 15.76 19.5797 16.29 20.2997 16.29H22.1997C22.6097 16.29 22.9497 16.63 22.9497 17.04V18.23C22.9497 20.73 20.9297 22.75 18.4397 22.75ZM6.95971 8.5C5.29971 8.5 3.94971 9.85001 3.94971 11.51V18.24C3.94971 19.9 5.29971 21.25 6.95971 21.25H18.4397C20.0997 21.25 21.4497 19.9 21.4497 18.24V17.8H20.2997C18.7897 17.8 17.5097 16.68 17.3897 15.24C17.3097 14.42 17.6097 13.61 18.2097 13.02C18.7297 12.49 19.4297 12.2 20.1797 12.2H21.4497V11.51C21.4497 9.85001 20.0997 8.5 18.4397 8.5H6.95971Z"
    />
    <path
      d="M12.8964 1.93773L12.8965 1.9377C13.5644 1.68519 14.3 1.77616 14.8718 2.17886L14.8718 2.17887L14.8745 2.18074C15.4593 2.58686 15.7997 3.2431 15.7997 3.95005V7.75003C15.7997 7.88389 15.6836 8.00003 15.5497 8.00003C15.4158 8.00003 15.2997 7.88389 15.2997 7.75003V3.95005C15.2997 3.40715 15.0401 2.90228 14.583 2.58801C14.1328 2.27849 13.5805 2.20195 13.061 2.40307L5.12298 5.4023L5.12298 5.4023L5.12099 5.40306C4.11954 5.78633 3.43971 6.76069 3.43971 7.84006V12.41H3.43957L3.43985 12.4219C3.4429 12.5499 3.34033 12.66 3.19971 12.66C3.06585 12.66 2.94971 12.5439 2.94971 12.41V7.84006C2.94971 6.55984 3.75935 5.39453 4.95711 4.93747C4.95736 4.93738 4.9576 4.93729 4.95784 4.9372L12.8964 1.93773Z"
      stroke="#7B7B7B"
    />
    <path
      d="M20.2997 17.7992C18.7897 17.7992 17.5097 16.6792 17.3897 15.2392C17.3097 14.4092 17.6097 13.5992 18.2097 13.0092C18.7197 12.4892 19.4197 12.1992 20.1697 12.1992H22.2497C23.2397 12.2292 23.9997 13.0092 23.9997 13.9692V16.0292C23.9997 16.9892 23.2397 17.7692 22.2797 17.7992H20.2997ZM22.2297 13.6992H20.1797C19.8297 13.6992 19.5097 13.8292 19.2797 14.0692C18.9897 14.3492 18.8497 14.7292 18.8897 15.1092C18.9497 15.7692 19.5797 16.2992 20.2997 16.2992H22.2597C22.3897 16.2992 22.5097 16.1792 22.5097 16.0292V13.9692C22.5097 13.8192 22.3897 13.7092 22.2297 13.6992Z"
    />
    <path
      d="M14.6997 12.75H7.69971C7.28971 12.75 6.94971 12.41 6.94971 12C6.94971 11.59 7.28971 11.25 7.69971 11.25H14.6997C15.1097 11.25 15.4497 11.59 15.4497 12C15.4497 12.41 15.1097 12.75 14.6997 12.75Z"
    />
  </svg>